{"title":"Tanu Weds Manu Returns (2015) 720p - Pre Dvd Rip - XviD - Team I","uid":11954952,"size":1975086506,"categoryP":"video","categoryS":"other","magnet":"?xt=urn:btih:32101e9bc117fee8027454c50182855de130d7ea&amp;dn=Tanu+Weds+Manu+Returns+%282015%29+720p+-+Pre+Dvd+Rip+-+XviD+-+Team+I&amp;tr=udp%3A%2F%2Ftracker.openbittorrent.com%3A80&amp;tr=udp%3A%2F%2Fopen.demonii.com%3A1337&amp;tr=udp%3A%2F%2Ftracker.coppersurfer.tk%3A6969&amp;tr=udp%3A%2F%2Fexodus.desync.com%3A6969","seeders":26,"leechers":6,"uploader":"SS132203","files":3,"time":1432365091,"description":"Tanu Weds Manu Returns (2015) 720p - Pre Dvd Rip - XviD - Team IcTv Exclusive\n &lt;a href=&quot;\nhttp://imgsparrow.co/image/47&quot; rel=&quot;nofollow&quot; target=&quot;_NEW&quot;&gt;\nhttp://imgsparrow.co/image/47&lt;/a&gt;\n &lt;a href=&quot;\nhttp://imgsparrow.co/image/bI&quot; rel=&quot;nofollow&quot; target=&quot;_NEW&quot;&gt;\nhttp://imgsparrow.co/image/bI&lt;/a&gt;\n\nInfo : - \n\nAll Credit Goes To Team Telly\nSample Within Torrent\n\nMovie Info\nBanner : Eros International\nYear : 2015\nCast : R Madhavan and Kangana Ranaut\nVideo: XviD\nAudio : MP3\nGenre : Comedy, Romance\nSubtitles :Nope\nResolution : 1280 x 544\nRuntime : 2hr 9min xx\nSource : Team IcTv\n\nFormat                      : AVI\nFormat/Info                 : Audio Video Interleave\nFile size                   : 1.79 GiB\nDuration                    : 2h 8mn\nOverall bit rate            : 1 991 Kbps\n\nVideo\nID                          : 0\nFormat                      : MPEG-4 Visual\nFormat profile              : Advanced Simple@L5\nFormat settings, BVOP       : 2\nFormat settings, QPel       : No\nFormat settings, GMC        : No warppoints\nFormat settings, Matrix     : Default (H.263)\nCodec ID                    : XVID\nCodec ID/Hint               : XviD\nDuration                    : 2h 8mn\nBit rate                    : 1 856 Kbps\nWidth                       : 1 280 pixels\nHeight                      : 544 pixels\nDisplay aspect ratio        : 2.35:1\nFrame rate                  : 25.000 fps\nColor space                 : YUV\nChroma subsampling          : 4:2:0\nBit depth                   : 8 bits\nScan type                   : Progressive\nCompression mode            : Lossy\nBits/(Pixel*Frame)          : 0.107\nStream size                 : 1.67 GiB (93%)\nWriting library             : XviD 1.2.1 (UTC 2008-12-04)\n\nAudio\nID                          : 1\nFormat                      : MPEG Audio\nFormat version              : Version 1\nFormat profile              : Layer 3\nMode                        : Joint stereo\nMode extension              : MS Stereo\nCodec ID                    : 55\nCodec ID/Hint               : MP3\nDuration                    : 2h 8mn\nBit rate mode               : Constant\nBit rate                    : 128 Kbps\nChannel(s)                  : 2 channels\nSampling rate               : 48.0 KHz\nCompression mode            : Lossy\nStream size                 : 118 MiB (6%)\n\nScreens : - \n &lt;a href=&quot;\nhttp://imgsparrow.co/image/hc&quot; rel=&quot;nofollow&quot; target=&quot;_NEW&quot;&gt;\nhttp://imgsparrow.co/image/hc&lt;/a&gt; &lt;a href=&quot;\nhttp://imgsparrow.co/image/hd&quot; rel=&quot;nofollow&quot; target=&quot;_NEW&quot;&gt;\nhttp://imgsparrow.co/image/hd&lt;/a&gt; &lt;a href=&quot;\nhttp://imgsparrow.co/image/ho&quot; rel=&quot;nofollow&quot; target=&quot;_NEW&quot;&gt;\nhttp://imgsparrow.co/image/ho&lt;/a&gt; &lt;a href=&quot;\nhttp://imgsparrow.co/image/hM&quot; rel=&quot;nofollow&quot; target=&quot;_NEW&quot;&gt;\nhttp://imgsparrow.co/image/hM&lt;/a&gt; &lt;a href=&quot;\nhttp://imgsparrow.co/image/hm&quot; rel=&quot;nofollow&quot; target=&quot;_NEW&quot;&gt;\nhttp://imgsparrow.co/image/hm&lt;/a&gt; &lt;a href=&quot;\nhttp://imgsparrow.co/image/hF&quot; rel=&quot;nofollow&quot; target=&quot;_NEW&quot;&gt;\nhttp://imgsparrow.co/image/hF&lt;/a&gt; &lt;a href=&quot;\nhttp://imgsparrow.co/image/hO&quot; rel=&quot;nofollow&quot; target=&quot;_NEW&quot;&gt;\nhttp://imgsparrow.co/image/hO&lt;/a&gt; &lt;a href=&quot;\nhttp://imgsparrow.co/image/hp&quot; rel=&quot;nofollow&quot; target=&quot;_NEW&quot;&gt;\nhttp://imgsparrow.co/image/hp&lt;/a&gt; &lt;a href=&quot;\nhttp://imgsparrow.co/image/h0&quot; rel=&quot;nofollow&quot; target=&quot;_NEW&quot;&gt;\nhttp://imgsparrow.co/image/h0&lt;/a&gt; &lt;a href=&quot;\nhttp://imgsparrow.co/image/hB&quot; rel=&quot;nofollow&quot; target=&quot;_NEW&quot;&gt;\nhttp://imgsparrow.co/image/hB&lt;/a&gt;\n &lt;a href=&quot;\nhttp://imgsparrow.co/image/N2&quot; rel=&quot;nofollow&quot; target=&quot;_NEW&quot;&gt;\nhttp://imgsparrow.co/image/N2&lt;/a&gt;","torrent":{"xt":"urn:btih:32101e9bc117fee8027454c50182855de130d7ea","amp;dn":"Tanu+Weds+Manu+Returns+%282015%29+720p+-+Pre+Dvd+Rip+-+XviD+-+Team+I","amp;tr":["udp%3A%2F%2Ftracker.openbittorrent.com%3A80","udp%3A%2F%2Fopen.demonii.com%3A1337","udp%3A%2F%2Ftracker.coppersurfer.tk%3A6969","udp%3A%2F%2Fexodus.desync.com%3A6969"],"infoHash":"32101e9bc117fee8027454c50182855de130d7ea","infoHashBuffer":{"type":"Buffer","data":[50,16,30,155,193,23,254,232,2,116,84,197,1,130,133,93,225,48,215,234]},"announce":[],"urlList":[]}}